<svg xmlns="http://www.w3.org/2000/svg" width="1800" height="1100" viewBox="0 0 1800 1100">
<defs>
  <marker id="arrow" viewBox="0 0 10 10" refX="9" refY="5" markerWidth="8" markerHeight="8" orient="auto-start-reverse">
    <path d="M 0 0 L 10 5 L 0 10 z" fill="#64748b" />
  </marker>
  <filter id="shadow" x="-20%" y="-20%" width="140%" height="140%">
    <feDropShadow dx="0" dy="4" stdDeviation="7" flood-color="#000000" flood-opacity="0.13"/>
  </filter>
</defs>
<rect width="1800" height="1100" fill="#f8fafc"/>
<text x="900.0" y="58" text-anchor="middle" font-family="Inter,Segoe UI,Arial,sans-serif" font-size="36" font-weight="700" fill="#0f172a">Durable Topology</text>
<text x="900.0" y="94" text-anchor="middle" font-family="Inter,Segoe UI,Arial,sans-serif" font-size="19" font-weight="500" fill="#475569">Aphelion as a house with bounded organs rather than one undifferentiated chatbot.</text>
<g filter="url(#shadow)"><rect x="700" y="120" width="400" height="90" rx="16" fill="#1f2937" stroke="#111827" stroke-width="3"/></g>
<text x="900.0" y="165.0" text-anchor="middle" font-family="Inter,Segoe UI,Arial,sans-serif" font-size="26" font-weight="600" fill="#ffffff">
<tspan x="900.0" dy="0">Aphelion / Idolum house</tspan>
</text>
<g filter="url(#shadow)"><rect x="180" y="340" width="240" height="80" rx="16" fill="#ffffff" stroke="#334155" stroke-width="3"/></g>
<text x="300.0" y="380.0" text-anchor="middle" font-family="Inter,Segoe UI,Arial,sans-serif" font-size="22" font-weight="600" fill="#0f172a">
<tspan x="300.0" dy="0">Admin DM</tspan>
</text>
<g filter="url(#shadow)"><rect x="500" y="340" width="240" height="80" rx="16" fill="#ffffff" stroke="#334155" stroke-width="3"/></g>
<text x="620.0" y="380.0" text-anchor="middle" font-family="Inter,Segoe UI,Arial,sans-serif" font-size="22" font-weight="600" fill="#0f172a">
<tspan x="620.0" dy="0">Heartbeat</tspan>
</text>
<g filter="url(#shadow)"><rect x="820" y="340" width="240" height="80" rx="16" fill="#ffffff" stroke="#334155" stroke-width="3"/></g>
<text x="940.0" y="380.0" text-anchor="middle" font-family="Inter,Segoe UI,Arial,sans-serif" font-size="22" font-weight="600" fill="#0f172a">
<tspan x="940.0" dy="0">Cron</tspan>
</text>
<g filter="url(#shadow)"><rect x="1140" y="340" width="240" height="80" rx="16" fill="#ffffff" stroke="#334155" stroke-width="3"/></g>
<text x="1260.0" y="380.0" text-anchor="middle" font-family="Inter,Segoe UI,Arial,sans-serif" font-size="22" font-weight="600" fill="#0f172a">
<tspan x="1260.0" dy="0">Control plane</tspan>
</text>
<g filter="url(#shadow)"><rect x="360" y="580" width="320" height="90" rx="16" fill="#ffffff" stroke="#334155" stroke-width="3"/></g>
<text x="520.0" y="611.0" text-anchor="middle" font-family="Inter,Segoe UI,Arial,sans-serif" font-size="22" font-weight="600" fill="#0f172a">
<tspan x="520.0" dy="0">Telegram durable</tspan>
<tspan x="520.0" dy="28">group child</tspan>
</text>
<g filter="url(#shadow)"><rect x="920" y="580" width="320" height="90" rx="16" fill="#ffffff" stroke="#334155" stroke-width="3"/></g>
<text x="1080.0" y="611.0" text-anchor="middle" font-family="Inter,Segoe UI,Arial,sans-serif" font-size="22" font-weight="600" fill="#0f172a">
<tspan x="1080.0" dy="0">Email durable</tspan>
<tspan x="1080.0" dy="28">child</tspan>
</text>
<g filter="url(#shadow)"><rect x="680" y="820" width="440" height="90" rx="16" fill="#ffffff" stroke="#334155" stroke-width="3"/></g>
<text x="900.0" y="865.0" text-anchor="middle" font-family="Inter,Segoe UI,Arial,sans-serif" font-size="22" font-weight="600" fill="#0f172a">
<tspan x="900.0" dy="0">Review artifacts</tspan>
</text>
<g filter="url(#shadow)"><path d="M 710 989.0 C 710 980 1090 980 1090 989.0 L 1090 1041.0 C 1090 1050 710 1050 710 1041.0 Z" fill="#dcfce7" stroke="#16a34a" stroke-width="3"/><ellipse cx="900.0" cy="989.0" rx="190.0" ry="9.0" fill="none" stroke="#16a34a" stroke-width="3"/></g>
<text x="900.0" y="1015.0" text-anchor="middle" font-family="Inter,Segoe UI,Arial,sans-serif" font-size="22" font-weight="600" fill="#0f172a">
<tspan x="900.0" dy="0">session store</tspan>
</text><line x1="900" y1="210" x2="300" y2="340" stroke="#64748b" stroke-width="3" marker-end="url(#arrow)" />
<line x1="900" y1="210" x2="620" y2="340" stroke="#64748b" stroke-width="3" marker-end="url(#arrow)" />
<line x1="900" y1="210" x2="940" y2="340" stroke="#64748b" stroke-width="3" marker-end="url(#arrow)" />
<line x1="900" y1="210" x2="1260" y2="340" stroke="#64748b" stroke-width="3" marker-end="url(#arrow)" />
<line x1="520" y1="420" x2="520" y2="580" stroke="#64748b" stroke-width="3" marker-end="url(#arrow)" />
<line x1="1080" y1="420" x2="1080" y2="580" stroke="#64748b" stroke-width="3" marker-end="url(#arrow)" />
<line x1="520" y1="670" x2="820" y2="820" stroke="#64748b" stroke-width="3" marker-end="url(#arrow)" />
<line x1="1080" y1="670" x2="980" y2="820" stroke="#64748b" stroke-width="3" marker-end="url(#arrow)" />
<line x1="900" y1="910" x2="900" y2="980" stroke="#64748b" stroke-width="3" marker-end="url(#arrow)" />
<line x1="300" y1="420" x2="820" y2="980" stroke="#64748b" stroke-width="3" marker-end="url(#arrow)" stroke-dasharray="10 8" />
<line x1="620" y1="420" x2="860" y2="980" stroke="#64748b" stroke-width="3" marker-end="url(#arrow)" stroke-dasharray="10 8" />
<line x1="940" y1="420" x2="940" y2="980" stroke="#64748b" stroke-width="3" marker-end="url(#arrow)" stroke-dasharray="10 8" />
<line x1="1260" y1="420" x2="1020" y2="980" stroke="#64748b" stroke-width="3" marker-end="url(#arrow)" stroke-dasharray="10 8" /><text x="900" y="1060" text-anchor="middle" font-family="Inter,Segoe UI,Arial,sans-serif" font-size="18" font-weight="500" fill="#64748b">
<tspan x="900" dy="0">The house has multiple organs with distinct scopes; review artifacts rise upward into the admin surface.</tspan>
</text>
</svg>