<svg xmlns="http://www.w3.org/2000/svg" width="1800" height="1100" viewBox="0 0 1800 1100">
<defs>
  <marker id="arrow" viewBox="0 0 10 10" refX="9" refY="5" markerWidth="8" markerHeight="8" orient="auto-start-reverse">
    <path d="M 0 0 L 10 5 L 0 10 z" fill="#64748b" />
  </marker>
  <filter id="shadow" x="-20%" y="-20%" width="140%" height="140%">
    <feDropShadow dx="0" dy="4" stdDeviation="7" flood-color="#000000" flood-opacity="0.13"/>
  </filter>
</defs>
<rect width="1800" height="1100" fill="#f8fafc"/>
<text x="900.0" y="58" text-anchor="middle" font-family="Inter,Segoe UI,Arial,sans-serif" font-size="36" font-weight="700" fill="#0f172a">State Surfaces</text>
<text x="900.0" y="94" text-anchor="middle" font-family="Inter,Segoe UI,Arial,sans-serif" font-size="19" font-weight="500" fill="#475569">Most of the system lives in sidecar durability, not just the visible transcript.</text>
<g filter="url(#shadow)"><rect x="150" y="230" width="220" height="70" rx="16" fill="#ffffff" stroke="#334155" stroke-width="3"/></g>
<text x="260.0" y="251.0" text-anchor="middle" font-family="Inter,Segoe UI,Arial,sans-serif" font-size="22" font-weight="600" fill="#0f172a">
<tspan x="260.0" dy="0">Visible</tspan>
<tspan x="260.0" dy="28">transcript</tspan>
</text>
<g filter="url(#shadow)"><rect x="420" y="230" width="220" height="70" rx="16" fill="#ffffff" stroke="#334155" stroke-width="3"/></g>
<text x="530.0" y="251.0" text-anchor="middle" font-family="Inter,Segoe UI,Arial,sans-serif" font-size="22" font-weight="600" fill="#0f172a">
<tspan x="530.0" dy="0">Floor</tspan>
<tspan x="530.0" dy="28">sidecar</tspan>
</text>
<g filter="url(#shadow)"><rect x="690" y="230" width="220" height="70" rx="16" fill="#ffffff" stroke="#334155" stroke-width="3"/></g>
<text x="800.0" y="251.0" text-anchor="middle" font-family="Inter,Segoe UI,Arial,sans-serif" font-size="22" font-weight="600" fill="#0f172a">
<tspan x="800.0" dy="0">Plan</tspan>
<tspan x="800.0" dy="28">state</tspan>
</text>
<g filter="url(#shadow)"><rect x="960" y="230" width="220" height="70" rx="16" fill="#ffffff" stroke="#334155" stroke-width="3"/></g>
<text x="1070.0" y="251.0" text-anchor="middle" font-family="Inter,Segoe UI,Arial,sans-serif" font-size="22" font-weight="600" fill="#0f172a">
<tspan x="1070.0" dy="0">Operation</tspan>
<tspan x="1070.0" dy="28">state</tspan>
</text>
<g filter="url(#shadow)"><rect x="1230" y="230" width="220" height="70" rx="16" fill="#ffffff" stroke="#334155" stroke-width="3"/></g>
<text x="1340.0" y="251.0" text-anchor="middle" font-family="Inter,Segoe UI,Arial,sans-serif" font-size="22" font-weight="600" fill="#0f172a">
<tspan x="1340.0" dy="0">Review</tspan>
<tspan x="1340.0" dy="28">events</tspan>
</text>
<g filter="url(#shadow)"><rect x="1500" y="230" width="220" height="70" rx="16" fill="#ffffff" stroke="#334155" stroke-width="3"/></g>
<text x="1610.0" y="251.0" text-anchor="middle" font-family="Inter,Segoe UI,Arial,sans-serif" font-size="22" font-weight="600" fill="#0f172a">
<tspan x="1610.0" dy="0">Decision</tspan>
<tspan x="1610.0" dy="28">requests</tspan>
</text>
<g filter="url(#shadow)"><rect x="555" y="520" width="300" height="80" rx="16" fill="#ffffff" stroke="#334155" stroke-width="3"/></g>
<text x="705.0" y="546.0" text-anchor="middle" font-family="Inter,Segoe UI,Arial,sans-serif" font-size="22" font-weight="600" fill="#0f172a">
<tspan x="705.0" dy="0">Turn audit /</tspan>
<tspan x="705.0" dy="28">progress</tspan>
</text>
<g filter="url(#shadow)"><rect x="945" y="520" width="300" height="80" rx="16" fill="#ffffff" stroke="#334155" stroke-width="3"/></g>
<text x="1095.0" y="546.0" text-anchor="middle" font-family="Inter,Segoe UI,Arial,sans-serif" font-size="22" font-weight="600" fill="#0f172a">
<tspan x="1095.0" dy="0">Durable agent</tspan>
<tspan x="1095.0" dy="28">state</tspan>
</text>
<g filter="url(#shadow)"><path d="M 690 859.0 C 690 850 1110 850 1110 859.0 L 1110 921.0 C 1110 930 690 930 690 921.0 Z" fill="#dcfce7" stroke="#16a34a" stroke-width="3"/><ellipse cx="900.0" cy="859.0" rx="210.0" ry="9.0" fill="none" stroke="#16a34a" stroke-width="3"/></g>
<text x="900.0" y="890.0" text-anchor="middle" font-family="Inter,Segoe UI,Arial,sans-serif" font-size="22" font-weight="600" fill="#0f172a">
<tspan x="900.0" dy="0">sessions.db</tspan>
</text><line x1="260.0" y1="300" x2="900" y2="850" stroke="#64748b" stroke-width="3" marker-end="url(#arrow)" />
<line x1="530.0" y1="300" x2="900" y2="850" stroke="#64748b" stroke-width="3" marker-end="url(#arrow)" />
<line x1="800.0" y1="300" x2="900" y2="850" stroke="#64748b" stroke-width="3" marker-end="url(#arrow)" />
<line x1="1070.0" y1="300" x2="900" y2="850" stroke="#64748b" stroke-width="3" marker-end="url(#arrow)" />
<line x1="1340.0" y1="300" x2="900" y2="850" stroke="#64748b" stroke-width="3" marker-end="url(#arrow)" />
<line x1="1610.0" y1="300" x2="900" y2="850" stroke="#64748b" stroke-width="3" marker-end="url(#arrow)" />
<line x1="705.0" y1="600" x2="900" y2="850" stroke="#64748b" stroke-width="3" marker-end="url(#arrow)" />
<line x1="1095.0" y1="600" x2="900" y2="850" stroke="#64748b" stroke-width="3" marker-end="url(#arrow)" />
<text x="900" y="1010" text-anchor="middle" font-family="Inter,Segoe UI,Arial,sans-serif" font-size="18" font-weight="500" fill="#64748b">
<tspan x="900" dy="0">The visible conversation is only one of several durable state surfaces the system depends on.</tspan>
</text>
</svg>